<?xml version="1.0" standalone="no"?>
<!DOCTYPE svg PUBLIC "-//W3C//DTD SVG 20010904//EN"
 "http://www.w3.org/TR/2001/REC-SVG-20010904/DTD/svg10.dtd">
<svg version="1.0" xmlns="http://www.w3.org/2000/svg"
 width="3458.000000pt" height="3458.000000pt" viewBox="0 0 3458.000000 3458.000000"
 preserveAspectRatio="xMidYMid meet">
<metadata>
Created by potrace 1.14, written by Peter Selinger 2001-2017
</metadata>
<g transform="translate(0.000000,3458.000000) scale(0.100000,-0.100000)"
fill="#000000" stroke="none">
<path d="M15676 34447 c19 -72 37 -142 39 -154 3 -12 20 -86 39 -165 19 -79
37 -161 42 -183 4 -22 8 -42 9 -45 1 -5 9 -47 20 -100 4 -22 38 -219 50 -290
11 -66 35 -241 40 -290 3 -30 8 -66 10 -80 2 -14 6 -59 10 -100 4 -41 8 -86
10 -100 27 -189 27 -925 0 -1171 -2 -19 -6 -61 -10 -94 -9 -88 -16 -147 -21
-175 -2 -14 -7 -45 -9 -70 -3 -25 -7 -56 -10 -70 -3 -14 -8 -38 -10 -55 -3
-16 -15 -77 -26 -134 -12 -57 -23 -116 -25 -130 -3 -14 -7 -34 -10 -43 -3 -9
-7 -26 -9 -38 -2 -13 -16 -68 -30 -124 -164 -636 -429 -1227 -819 -1826 -55
-85 -106 -162 -113 -170 -6 -8 -51 -69 -99 -135 -146 -203 -331 -434 -484
-605 -36 -40 -73 -82 -83 -94 -154 -180 -621 -647 -907 -906 -52 -47 -101 -92
-110 -100 -14 -13 -111 -98 -190 -167 -14 -12 -38 -33 -55 -48 -16 -14 -82
-70 -145 -123 -63 -53 -121 -102 -127 -109 -12 -10 -89 -74 -373 -308 -54 -44
-115 -93 -136 -110 -20 -16 -117 -93 -213 -170 -210 -168 -705 -558 -805 -634
-55 -43 -403 -317 -486 -384 -8 -7 -58 -46 -110 -87 -52 -41 -97 -77 -100 -80
-3 -3 -61 -51 -129 -105 -69 -55 -197 -160 -285 -233 -216 -178 -244 -203
-280 -233 -17 -15 -65 -56 -106 -90 -41 -35 -80 -68 -86 -74 -6 -5 -42 -37
-79 -70 -284 -247 -572 -516 -828 -771 -217 -216 -337 -343 -566 -599 -53 -59
-247 -291 -281 -335 -19 -25 -37 -47 -40 -50 -7 -6 -191 -245 -238 -310 -211
-288 -412 -600 -582 -905 -86 -154 -270 -528 -330 -670 -23 -55 -48 -113 -55
-130 -69 -156 -220 -604 -260 -771 -3 -10 -14 -55 -25 -99 -23 -87 -84 -376
-95 -440 -27 -173 -44 -288 -43 -294 1 -3 -1 -26 -5 -51 -24 -171 -32 -341
-32 -695 1 -284 5 -388 20 -530 3 -22 7 -65 10 -95 6 -65 11 -100 25 -200 12
-79 15 -101 31 -190 6 -30 12 -66 14 -80 13 -80 79 -377 96 -427 5 -17 12 -42
14 -55 3 -13 14 -54 26 -93 11 -38 29 -99 39 -135 59 -203 226 -652 315 -845
124 -269 227 -478 302 -615 14 -25 41 -74 61 -110 19 -36 78 -137 130 -225 89
-149 131 -216 221 -355 20 -30 41 -62 46 -71 36 -59 255 -371 325 -464 14 -18
34 -46 45 -61 11 -15 58 -77 105 -137 47 -61 103 -133 124 -161 41 -53 359
-435 392 -471 11 -11 50 -56 89 -100 38 -44 81 -91 95 -105 14 -15 40 -44 59
-65 189 -222 750 -779 1151 -1145 51 -47 98 -89 104 -95 6 -5 45 -39 86 -75
41 -36 77 -67 80 -70 7 -7 140 -123 174 -151 16 -13 34 -29 40 -34 22 -20 431
-361 457 -380 41 -31 312 -245 335 -265 57 -48 476 -361 479 -358 2 2 -5 37
-17 78 -84 304 -163 643 -208 897 -6 35 -13 73 -15 85 -8 43 -45 313 -49 358
-3 25 -7 59 -10 75 -4 30 -13 123 -21 245 -25 341 -20 753 11 1055 2 28 7 73
10 100 2 28 7 68 10 90 3 22 7 51 9 65 4 27 14 97 21 145 10 64 46 251 63 325
5 25 12 56 14 70 15 85 106 399 169 585 248 733 667 1479 1232 2195 90 114
315 386 358 433 13 14 34 38 47 53 13 16 45 52 70 79 25 28 91 100 146 160 55
61 239 250 410 420 264 264 365 362 574 555 64 59 221 201 276 250 33 29 76
68 95 86 19 18 60 53 90 79 70 61 115 100 165 144 22 20 70 61 105 91 36 30
85 73 110 95 25 22 88 76 140 120 52 44 104 87 115 97 21 19 41 35 119 102 27
22 81 68 120 101 39 33 125 105 191 160 66 55 122 102 125 105 3 3 86 73 185
155 99 82 212 177 251 210 39 33 82 69 95 80 79 66 335 281 339 285 3 3 34 30
70 60 36 30 67 57 70 60 3 3 32 28 65 55 33 28 65 55 71 60 11 10 46 40 218
190 45 38 83 72 86 75 3 3 36 32 75 65 38 33 76 67 85 75 9 8 34 31 56 50 53
46 238 214 294 266 25 23 61 56 80 74 311 285 795 768 1030 1026 241 265 366
411 545 634 232 291 302 386 519 710 146 218 220 339 341 555 74 131 220 416
253 493 12 27 36 82 55 123 172 373 355 938 443 1364 1 6 9 37 17 70 25 96 49
217 62 315 3 25 8 56 10 70 5 27 11 82 23 205 18 205 5 725 -23 885 -3 14 -7
45 -11 70 -10 85 -35 225 -54 305 -10 45 -21 93 -24 107 -11 65 -90 337 -139
483 -61 180 -150 408 -208 533 -22 46 -39 86 -39 88 0 7 -163 333 -200 400
-18 32 -45 82 -61 110 -44 81 -159 276 -179 304 -9 14 -19 30 -21 35 -10 24
-253 392 -331 500 -114 158 -305 412 -318 425 -3 3 -35 43 -71 90 -70 90 -209
258 -289 350 -135 156 -277 317 -290 330 -8 9 -62 68 -120 131 -106 115 -725
737 -835 839 -33 31 -96 89 -140 130 -89 83 -183 169 -236 215 -70 61 -204
180 -209 185 -42 42 -528 453 -690 583 -281 227 -632 502 -765 602 -22 16 -47
35 -55 42 -22 18 -413 308 -426 316 -7 4 4 -52 22 -126z"/>
<path d="M22758 24883 c22 -42 134 -519 182 -773 24 -122 25 -131 45 -247 15
-92 32 -216 40 -288 5 -45 10 -80 20 -155 2 -14 7 -65 11 -115 4 -49 8 -103 9
-120 27 -306 22 -870 -10 -1135 -2 -19 -7 -64 -10 -100 -4 -36 -8 -76 -10 -90
-26 -175 -36 -239 -40 -260 -3 -14 -9 -50 -15 -80 -16 -89 -19 -101 -41 -200
-183 -825 -561 -1617 -1133 -2380 -128 -172 -151 -201 -171 -224 -6 -6 -28
-33 -50 -61 -22 -27 -42 -52 -45 -55 -3 -3 -43 -50 -90 -105 -47 -55 -103
-120 -126 -145 -23 -25 -55 -60 -70 -78 -149 -173 -626 -644 -914 -902 -46
-41 -94 -84 -106 -95 -12 -11 -48 -42 -80 -70 -59 -50 -145 -126 -154 -135
-11 -11 -136 -116 -345 -289 -121 -101 -229 -190 -240 -199 -26 -22 -422 -339
-466 -374 -19 -15 -101 -80 -184 -145 -82 -66 -249 -197 -370 -291 -121 -95
-233 -183 -250 -196 -16 -13 -55 -44 -85 -68 -30 -24 -140 -111 -245 -193
-104 -82 -192 -152 -195 -155 -3 -3 -61 -50 -130 -105 -69 -54 -152 -122 -186
-150 -33 -27 -80 -66 -105 -86 -66 -55 -360 -299 -389 -325 -14 -12 -79 -68
-145 -125 -187 -161 -365 -320 -589 -529 -92 -85 -568 -560 -636 -635 -44 -48
-135 -147 -210 -230 -54 -60 -268 -312 -325 -384 -27 -35 -65 -82 -84 -104
-78 -96 -274 -364 -387 -532 -489 -724 -827 -1442 -1029 -2186 -44 -160 -49
-181 -61 -243 -2 -16 -7 -33 -9 -36 -3 -4 -7 -25 -11 -46 -3 -22 -9 -55 -14
-74 -10 -40 -45 -241 -55 -315 -11 -84 -16 -119 -20 -150 -2 -16 -7 -57 -10
-90 -3 -33 -8 -80 -10 -103 -24 -229 -25 -812 -1 -1012 3 -19 7 -62 11 -95 7
-75 15 -151 20 -190 5 -38 33 -220 41 -260 8 -42 44 -226 49 -250 3 -11 7 -32
11 -47 3 -15 6 -31 6 -35 1 -5 14 -57 30 -118 16 -60 31 -118 33 -129 47 -201
236 -739 346 -983 10 -23 19 -44 19 -47 0 -6 97 -212 173 -366 84 -171 225
-434 259 -482 10 -14 18 -29 18 -32 0 -19 463 -745 489 -766 3 -3 21 -27 40
-55 131 -190 473 -630 670 -860 128 -149 298 -342 362 -410 31 -33 74 -80 95
-105 49 -56 691 -699 799 -800 44 -41 123 -113 174 -160 51 -47 106 -96 120
-110 15 -14 63 -56 107 -95 43 -38 84 -74 90 -80 24 -22 142 -125 189 -165 28
-23 61 -52 75 -64 14 -12 95 -79 180 -150 85 -71 166 -138 180 -149 14 -12
115 -93 225 -180 110 -87 207 -163 215 -170 8 -7 60 -46 115 -87 55 -41 102
-77 105 -80 3 -3 41 -32 85 -65 44 -32 97 -72 117 -88 l37 -28 -14 48 c-83
280 -202 798 -231 1003 -2 19 -7 44 -9 56 -6 27 -32 211 -40 289 -4 33 -9 67
-10 76 -2 8 -6 55 -10 105 -4 49 -9 96 -10 105 -24 127 -24 868 -1 1055 2 16
7 67 11 114 4 47 8 92 10 100 1 8 6 38 9 65 4 28 9 64 11 80 64 488 244 1116
460 1600 56 126 69 154 135 286 110 220 177 340 363 644 93 152 339 503 472
673 33 42 76 98 95 123 72 94 301 365 436 515 308 342 729 767 1079 1089 54
50 115 106 136 125 206 190 532 477 869 765 58 50 107 92 110 95 3 3 61 52
130 110 69 57 127 107 130 110 3 3 28 24 55 45 28 22 55 45 60 51 6 6 118 100
250 210 132 109 242 201 245 204 3 3 30 25 60 50 30 25 60 49 66 55 6 5 32 28
59 50 26 22 53 45 59 50 6 6 65 55 131 110 66 55 125 104 131 110 6 5 35 30
65 55 313 263 803 691 1063 930 33 30 66 60 72 65 70 60 503 475 638 611 126
128 344 354 436 454 52 57 100 108 105 114 6 6 39 45 75 86 36 41 70 80 75 86
32 34 121 139 175 204 34 41 69 84 78 95 45 53 238 303 314 405 404 544 774
1195 992 1745 16 39 36 90 47 115 95 230 226 678 335 1145 14 59 54 277 59
324 4 30 9 63 11 75 27 137 26 805 -1 1006 -2 14 -6 48 -10 75 -6 46 -29 186
-40 245 -2 14 -16 77 -30 140 -15 63 -28 123 -30 133 -36 164 -244 777 -276
812 -5 5 -9 15 -9 22 0 6 -13 40 -29 75 -16 35 -44 95 -62 133 -74 162 -181
370 -272 530 -22 39 -45 79 -51 90 -11 18 -90 151 -119 200 -87 144 -380 572
-525 764 -101 135 -187 248 -191 251 -4 3 -22 25 -41 50 -19 25 -39 50 -45 56
-5 7 -17 20 -25 31 -252 316 -634 736 -1041 1142 -347 347 -683 661 -1019 951
-35 30 -68 60 -74 65 -6 6 -40 35 -76 65 -36 30 -67 57 -70 60 -17 20 -353
297 -555 459 -132 106 -248 199 -257 206 -140 114 -872 665 -883 665 -3 0 -2
-8 3 -17z"/>
</g>
</svg>
