<?xml version="1.0" standalone="no"?>
<!DOCTYPE svg PUBLIC "-//W3C//DTD SVG 20010904//EN"
 "http://www.w3.org/TR/2001/REC-SVG-20010904/DTD/svg10.dtd">
<svg version="1.0" xmlns="http://www.w3.org/2000/svg"
 width="3356.000000pt" height="3356.000000pt" viewBox="0 0 3356.000000 3356.000000"
 preserveAspectRatio="xMidYMid meet">
<metadata>
Created by potrace 1.14, written by Peter Selinger 2001-2017
</metadata>
<g transform="translate(0.000000,3356.000000) scale(0.100000,-0.100000)"
fill="#000000" stroke="none">
<path d="M15609 27996 c-2 -2 -42 -6 -89 -10 -98 -8 -163 -14 -205 -21 -16 -2
-50 -7 -75 -11 -94 -13 -309 -56 -400 -81 -52 -14 -103 -27 -113 -29 -34 -6
-193 -56 -307 -96 -260 -91 -556 -223 -807 -359 -141 -77 -170 -93 -193 -108
-14 -9 -34 -21 -45 -28 -288 -169 -595 -385 -910 -637 -94 -75 -226 -186 -251
-210 -6 -6 -37 -33 -70 -61 -58 -50 -103 -91 -238 -215 -93 -86 -501 -493
-596 -596 -41 -45 -109 -119 -150 -164 -41 -46 -82 -91 -90 -99 -96 -100 -560
-660 -690 -832 -35 -46 -67 -86 -70 -89 -6 -4 -220 -291 -355 -475 -49 -66
-122 -170 -224 -315 -224 -320 -551 -818 -779 -1185 -164 -265 -591 -987 -587
-993 1 -2 372 134 430 158 122 50 714 227 855 255 8 2 35 8 60 15 25 7 52 13
60 15 8 2 60 12 115 24 55 11 114 23 130 26 70 12 202 36 220 39 11 2 45 7 75
11 30 4 63 9 74 11 10 2 44 6 75 10 31 3 65 8 76 10 11 2 58 7 105 10 47 3 91
7 97 9 75 25 857 25 1059 0 16 -2 58 -6 94 -10 36 -3 76 -8 90 -10 14 -2 61
-9 105 -15 44 -6 91 -12 105 -15 194 -33 274 -49 430 -87 792 -191 1562 -551
2339 -1093 79 -55 169 -118 200 -139 31 -22 58 -42 61 -45 3 -3 50 -40 105
-81 156 -117 590 -469 671 -545 6 -5 26 -23 45 -39 70 -61 184 -162 205 -181
11 -11 58 -54 104 -95 45 -41 97 -88 115 -105 356 -333 610 -581 1134 -1109
1157 -1165 1576 -1579 1892 -1867 40 -36 197 -178 249 -225 120 -109 263 -233
490 -424 194 -164 733 -577 828 -635 9 -5 22 -15 28 -21 12 -11 425 -285 469
-311 11 -6 83 -50 160 -96 487 -294 1145 -602 1595 -747 241 -78 288 -92 308
-96 13 -3 42 -11 65 -19 42 -13 319 -83 367 -92 14 -2 66 -13 115 -23 50 -10
104 -21 120 -23 17 -3 57 -10 90 -16 33 -6 76 -13 95 -15 19 -2 89 -11 155
-20 159 -20 190 -24 320 -33 141 -10 734 -10 845 0 47 4 112 10 145 13 33 3
74 7 90 9 17 2 55 7 85 10 30 4 66 9 80 11 14 2 57 9 95 14 39 6 106 17 150
26 44 9 94 18 110 20 172 28 702 182 975 283 244 91 677 292 930 432 397 220
901 559 1265 853 89 71 342 283 371 311 6 5 42 37 79 70 149 131 231 211 510
490 279 278 342 344 485 505 36 40 70 78 75 84 6 6 39 45 75 86 36 41 70 80
76 86 19 22 82 97 293 349 138 166 501 644 687 905 335 471 708 1041 989 1514
124 208 197 338 193 342 -3 2 -31 -7 -64 -22 -105 -46 -395 -155 -574 -216
-325 -110 -613 -189 -925 -254 -104 -22 -347 -62 -470 -79 -22 -3 -55 -7 -74
-10 -19 -2 -64 -7 -100 -10 -36 -3 -79 -8 -96 -10 -199 -27 -883 -27 -1115 0
-61 7 -144 17 -165 20 -11 1 -47 5 -80 9 -33 4 -82 11 -110 16 -27 5 -68 12
-90 15 -22 3 -47 7 -55 10 -8 2 -31 6 -50 9 -49 8 -83 15 -154 31 -33 8 -72
16 -86 19 -100 18 -423 110 -625 178 -124 42 -420 155 -490 187 -22 10 -69 31
-105 46 -269 112 -799 398 -1115 601 -55 35 -107 67 -115 71 -8 3 -31 18 -50
33 -19 15 -42 30 -50 33 -13 6 -96 62 -125 85 -5 4 -30 21 -55 38 -160 107
-627 452 -725 535 -32 28 -99 82 -141 114 -47 37 -397 327 -404 335 -3 3 -36
33 -75 66 -97 82 -292 252 -321 279 -26 24 -173 155 -208 186 -22 19 -51 45
-65 59 -14 14 -70 66 -125 115 -54 50 -115 106 -136 125 -20 19 -93 87 -161
150 -68 63 -153 143 -189 177 -36 34 -81 76 -100 94 -19 18 -111 105 -204 193
-93 89 -186 177 -206 196 -20 19 -110 105 -200 190 -89 85 -185 177 -214 203
-28 27 -116 110 -196 186 -80 75 -174 164 -208 197 -35 32 -81 75 -101 94 -38
35 -230 214 -286 265 -33 30 -163 148 -260 234 -33 30 -62 57 -65 61 -20 24
-517 451 -740 636 -275 229 -700 555 -943 725 -23 16 -64 45 -92 64 -27 20
-115 79 -195 132 -80 53 -156 104 -170 113 -56 38 -370 230 -376 230 -3 0 -18
8 -32 18 -28 19 -61 38 -266 149 -256 139 -573 290 -786 375 -41 16 -88 35
-105 43 -16 7 -46 18 -65 25 -19 7 -48 19 -65 26 -33 14 -380 130 -488 164
-112 34 -403 107 -558 139 -157 32 -168 34 -274 51 -38 6 -83 13 -100 16 -41
8 -69 11 -142 19 -34 3 -70 7 -80 9 -10 2 -43 7 -74 10 -31 4 -66 8 -77 11
-12 2 -52 7 -89 10 -37 4 -77 9 -88 12 -23 6 -600 14 -606 9z"/>
<path d="M7427 19833 c-1 0 -67 -4 -147 -7 -80 -3 -154 -8 -165 -10 -11 -2
-51 -7 -88 -11 -37 -3 -76 -8 -85 -10 -9 -1 -39 -6 -67 -9 -86 -12 -346 -65
-445 -92 -148 -41 -263 -74 -285 -84 -11 -4 -56 -20 -100 -35 -203 -70 -347
-132 -600 -257 -274 -135 -442 -231 -704 -404 -24 -16 -51 -33 -59 -39 -25
-16 -166 -114 -177 -123 -5 -4 -44 -32 -85 -61 -82 -60 -308 -233 -355 -274
-16 -14 -63 -53 -103 -86 -41 -34 -86 -72 -100 -85 -15 -13 -67 -59 -117 -102
-181 -158 -389 -358 -635 -610 -224 -230 -386 -411 -719 -799 -60 -71 -293
-360 -341 -423 -14 -19 -30 -39 -37 -46 -18 -20 -374 -494 -428 -571 -27 -38
-53 -74 -58 -80 -4 -5 -35 -48 -67 -95 -33 -47 -63 -89 -68 -95 -57 -71 -450
-661 -639 -960 -73 -115 -136 -215 -140 -220 -4 -6 -15 -23 -23 -37 -8 -15
-85 -143 -171 -285 -161 -266 -244 -405 -287 -483 -13 -25 -28 -49 -32 -55 -4
-5 -18 -28 -30 -50 -12 -22 -33 -59 -47 -82 -18 -32 -21 -43 -11 -43 8 0 18 4
23 9 31 28 800 294 975 336 8 2 69 18 135 35 126 34 174 46 215 54 14 3 68 15
120 26 52 12 118 25 145 31 28 5 61 11 75 14 14 3 39 8 55 10 17 3 55 10 85
15 30 5 78 12 105 15 28 3 57 8 65 10 8 2 40 7 70 10 30 3 62 8 70 10 8 2 51
7 95 10 44 4 94 9 110 10 263 27 886 26 1090 0 17 -2 63 -7 104 -10 41 -3 77
-8 80 -9 3 -2 33 -7 66 -10 33 -4 110 -16 170 -26 61 -11 126 -22 145 -25 64
-11 203 -44 360 -85 85 -22 163 -42 173 -45 24 -5 51 -15 247 -81 145 -49 300
-108 395 -149 17 -7 64 -27 105 -45 225 -97 565 -274 830 -434 205 -123 597
-385 715 -479 6 -4 62 -46 125 -94 115 -87 301 -232 310 -242 3 -3 39 -33 80
-66 41 -33 86 -70 100 -81 158 -135 199 -170 225 -193 75 -67 321 -286 331
-296 6 -5 60 -55 119 -110 257 -237 384 -362 1395 -1374 944 -946 1313 -1309
1514 -1492 33 -30 73 -67 91 -84 17 -16 53 -50 81 -75 27 -25 90 -82 139 -126
50 -45 113 -101 140 -125 28 -24 79 -69 114 -99 35 -30 69 -60 75 -65 34 -32
271 -227 391 -324 77 -61 147 -117 155 -124 23 -19 332 -250 357 -267 11 -8
59 -42 105 -75 73 -52 349 -238 403 -272 11 -7 67 -42 125 -78 58 -36 114 -71
125 -78 11 -6 44 -26 72 -44 29 -18 55 -33 57 -33 2 0 46 -24 98 -53 460 -264
1004 -504 1503 -664 44 -14 85 -26 90 -28 6 -1 17 -5 25 -8 70 -29 501 -135
680 -167 30 -5 65 -12 76 -14 12 -2 39 -7 60 -10 22 -4 46 -8 54 -11 8 -2 35
-6 60 -9 25 -3 77 -10 116 -15 40 -6 103 -13 140 -17 38 -3 80 -8 94 -10 154
-25 902 -25 1095 1 17 2 62 7 100 11 39 4 72 8 75 9 3 1 34 5 70 9 36 4 72 9
80 11 8 2 33 6 55 9 63 10 98 16 125 21 14 3 41 8 60 11 19 3 41 7 49 10 8 2
30 7 50 10 20 3 43 7 51 10 8 3 26 8 39 10 13 3 51 12 85 20 34 8 71 17 84 20
31 6 333 93 352 101 8 3 20 7 25 8 6 2 51 17 100 35 50 17 95 33 100 34 6 2
19 6 30 10 417 156 714 296 1150 541 136 77 571 357 675 435 19 15 107 80 195
146 420 312 766 614 1205 1054 218 219 301 305 445 464 44 49 101 112 126 140
26 28 62 69 80 91 19 22 43 51 54 63 11 13 27 32 35 41 59 70 107 127 120 141
46 51 323 395 410 510 36 47 70 92 77 100 16 19 211 283 286 385 31 44 65 91
74 103 113 157 477 696 607 901 95 149 321 515 356 576 10 17 61 104 114 194
54 90 95 165 93 167 -2 2 -48 -14 -103 -36 -295 -121 -648 -244 -884 -310 -63
-17 -135 -38 -160 -45 -77 -23 -365 -91 -465 -109 -16 -3 -57 -11 -90 -17 -33
-6 -71 -13 -85 -15 -14 -2 -41 -7 -60 -10 -19 -3 -48 -8 -65 -10 -16 -2 -41
-6 -55 -9 -14 -2 -52 -7 -85 -11 -33 -3 -69 -8 -79 -10 -10 -2 -58 -6 -105
-10 -47 -4 -89 -8 -93 -10 -15 -9 -313 -19 -563 -18 -239 0 -406 7 -500 20
-16 2 -57 6 -90 9 -63 5 -143 13 -185 20 -14 2 -45 7 -70 10 -25 3 -52 8 -60
10 -8 2 -35 7 -60 10 -25 3 -56 8 -70 10 -14 3 -34 7 -45 9 -90 18 -281 61
-380 86 -66 17 -129 33 -140 35 -11 3 -49 14 -85 26 -36 12 -69 22 -75 24 -5
1 -17 4 -25 7 -8 3 -60 20 -115 38 -165 53 -464 167 -590 225 -27 12 -72 33
-100 45 -27 13 -104 49 -170 80 -66 31 -122 57 -125 57 -3 0 -24 12 -47 26
-24 15 -45 27 -48 27 -14 0 -425 233 -556 315 -9 5 -32 18 -50 29 -39 21 -531
346 -539 355 -3 3 -25 20 -50 36 -24 17 -51 35 -60 42 -8 6 -105 79 -215 161
-172 128 -477 365 -540 420 -11 9 -49 41 -85 71 -104 86 -157 130 -269 227
-59 49 -117 99 -129 110 -55 45 -113 96 -272 239 -205 184 -251 226 -305 275
-33 30 -82 76 -110 101 -27 26 -62 57 -76 70 -39 35 -247 228 -289 269 -63 60
-313 296 -360 340 -25 23 -119 113 -210 200 -91 87 -181 172 -200 190 -19 18
-105 99 -190 180 -85 81 -175 167 -200 190 -25 23 -79 74 -120 114 -74 70
-296 277 -355 331 -95 87 -222 203 -244 225 -15 14 -63 57 -106 95 -44 39 -91
81 -105 95 -14 14 -57 52 -95 85 -39 33 -74 65 -80 71 -5 6 -41 37 -80 70 -38
32 -77 66 -85 74 -8 8 -44 40 -80 70 -36 30 -67 57 -70 60 -3 3 -30 25 -60 50
-30 25 -57 47 -60 50 -29 34 -506 415 -730 583 -107 81 -200 151 -206 156 -6
4 -42 30 -80 57 -38 26 -100 70 -139 98 -106 77 -423 286 -561 371 -100 60
-300 179 -344 203 -25 13 -58 32 -75 42 -98 56 -414 218 -554 282 -215 99
-649 276 -721 294 -8 2 -62 20 -120 39 -161 55 -519 155 -640 180 -168 35
-220 45 -245 49 -16 3 -41 8 -55 11 -13 2 -40 7 -60 10 -20 3 -47 8 -60 10
-34 7 -70 12 -255 35 -88 11 -173 22 -190 25 -16 2 -52 7 -80 10 -27 3 -68 8
-90 11 -82 9 -432 23 -438 17z"/>
</g>
</svg>
